<svg version="1.2" xmlns="http://www.w3.org/2000/svg" viewBox="3141.96 48.36000000000058 1000 999.9999999999993" width="1001" height="1001">
	<style>
		.s0 { fill: #ffffff } 
	</style>
	<g id="Layer 1">
		<g id="&lt;Group&gt;">
		</g>
		<g id="&lt;Group&gt;">
		</g>
		<g id="&lt;Group&gt;">
			<g id="&lt;Group&gt;">
				<g id="&lt;Group&gt;">
					<g id="&lt;Group&gt;">
					</g>
					<g id="&lt;Group&gt;">
					</g>
				</g>
				<g id="&lt;Group&gt;" style="opacity: .15">
				</g>
			</g>
		</g>
		<g id="&lt;Group&gt;">
			<g id="&lt;Group&gt;">
				<g id="&lt;Group&gt;">
					<g id="&lt;Group&gt;">
					</g>
					<g id="&lt;Group&gt;">
					</g>
				</g>
			</g>
		</g>
		<g id="&lt;Group&gt;">
		</g>
		<g id="&lt;Group&gt;">
		</g>
	</g>
	<g id="Layer 2">
	</g>
	<g id="Layer 3">
		<g id="&lt;Group&gt;">
			<g id="&lt;Group&gt;">
				<path id="&lt;Compound Path&gt;" class="s0" d="m3838.18 272.86h-392.44c-16.07 0-29.09 13.03-29.09 29.09 0 7.3 2.72 14.02 7.21 19.13l194.77 273.36c0.26 0.39 0.61 0.62 0.9 0.97 0.88 1.17 1.88 2.23 2.94 3.23 0.62 0.59 1.2 1.1 1.85 1.62 0.35 0.29 0.64 0.65 1.03 0.91 1.1 0.77 2.23 1.42 3.39 2.03 0.13 0.07 0.26 0.16 0.39 0.23 1.84 0.93 3.72 1.55 5.62 2.07q0.63 0.14 1.26 0.29c1.98 0.42 3.95 0.68 5.92 0.68q0.04 0 0.03 0-0.01 0 0.03 0c1.97 0 3.94-0.26 5.92-0.68q0.63-0.15 1.26-0.29c1.9-0.52 3.78-1.14 5.62-2.07 0.13-0.07 0.26-0.16 0.39-0.23 1.16-0.61 2.29-1.26 3.39-2.03 0.39-0.26 0.68-0.62 1.03-0.91 0.65-0.52 1.23-1.03 1.85-1.62q1.64-1.49 2.94-3.23c0.29-0.35 0.64-0.58 0.9-0.97l194.77-273.36c4.49-5.11 7.21-11.83 7.21-19.13 0-16.06-13.02-29.09-29.09-29.09zm-196.22 255.63l-140.7-197.46h281.4z"/>
				<path id="&lt;Path&gt;" class="s0" d="m4004.42 272.86c-11.88-3.79-24.82 0.52-32.05 10.67l-330.41 463.7-330.41-463.7c-7.22-10.15-20.17-14.46-32.05-10.67-11.87 3.8-19.91 14.83-19.91 27.28v496.44c0 15.82 12.82 28.64 28.63 28.64 15.82 0 28.64-12.82 28.64-28.64v-406.9l101.36 142.24v264.66c0 15.82 12.81 28.64 28.63 28.64 15.82 0 28.64-12.82 28.64-28.64v-184.28l143.15 200.9c0.26 0.36 0.61 0.61 0.88 0.96q1.33 1.71 2.95 3.23 0.89 0.85 1.84 1.61c0.36 0.29 0.65 0.63 1.03 0.9 1.1 0.78 2.24 1.43 3.39 2.04 0.14 0.07 0.27 0.17 0.41 0.24 1.82 0.91 3.71 1.55 5.62 2.05q0.63 0.16 1.27 0.29c1.95 0.41 3.93 0.7 5.91 0.7q0.01 0 0.02-0.01 0.01 0.01 0.02 0.01c1.98 0 3.96-0.29 5.91-0.7q0.64-0.13 1.27-0.29c1.91-0.5 3.8-1.14 5.62-2.05 0.14-0.07 0.27-0.17 0.41-0.24 1.15-0.61 2.29-1.26 3.39-2.04 0.38-0.27 0.67-0.61 1.03-0.9q0.95-0.76 1.84-1.61 1.62-1.52 2.95-3.23c0.28-0.35 0.62-0.6 0.88-0.96l146.32-205.35v188.73c0 15.82 12.82 28.64 28.64 28.64 15.82 0 28.64-12.82 28.64-28.64v-269.11l98.18-137.79v406.9c0 15.82 12.82 28.64 28.64 28.64 15.81 0 28.63-12.82 28.63-28.64v-496.44c0-12.45-8.04-23.48-19.91-27.28z"/>
			</g>
		</g>
		<g id="&lt;Group&gt;">
			<g id="&lt;Group&gt;">
			</g>
			<g id="&lt;Group&gt;">
			</g>
		</g>
	</g>
	<g id="Layer 4">
		<g id="&lt;Group&gt;">
			<g id="&lt;Group&gt;">
			</g>
		</g>
	</g>
</svg>